<?xml version="1.0" standalone="no"?>
<!DOCTYPE svg PUBLIC "-//W3C//DTD SVG 20010904//EN"
 "http://www.w3.org/TR/2001/REC-SVG-20010904/DTD/svg10.dtd">
<svg version="1.0" xmlns="http://www.w3.org/2000/svg"
 width="400.000000pt" height="400.000000pt" viewBox="0 0 400.000000 400.000000"
 preserveAspectRatio="xMidYMid meet">
<metadata>
Created by potrace 1.14, written by Peter Selinger 2001-2017
</metadata>
<g transform="translate(0.000000,400.000000) scale(0.100000,-0.100000)"
fill="#000000" stroke="none">
<path d="M1562 3841 c-8 -4 -22 -41 -33 -81 -16 -64 -19 -109 -19 -346 l0
-273 -138 -125 c-76 -68 -154 -144 -174 -168 -73 -89 -68 -35 -68 -762 0 -582
2 -656 16 -670 8 -9 23 -16 31 -16 41 0 240 126 759 482 270 185 618 460 717
567 57 62 81 111 59 119 -7 2 -12 10 -12 18 0 20 -108 68 -215 96 -49 13 -100
32 -114 44 l-25 21 5 254 c5 327 0 641 -12 655 -12 14 -155 84 -254 124 -79
32 -114 41 -230 60 -73 12 -275 13 -293 1z"/>
<path d="M2805 2190 c-10 -11 -24 -20 -31 -20 -7 0 -28 -18 -47 -41 -20 -22
-50 -49 -69 -58 -18 -10 -37 -27 -42 -38 -5 -11 -24 -26 -42 -32 -18 -7 -46
-25 -61 -42 -15 -16 -36 -29 -46 -29 -11 0 -17 -6 -14 -12 5 -16 -22 -37 -46
-38 -11 0 -24 -14 -33 -35 -8 -20 -21 -35 -31 -35 -9 0 -38 -23 -64 -50 -26
-28 -58 -53 -70 -55 -12 -3 -32 -14 -44 -25 -12 -11 -26 -20 -32 -20 -6 0 -34
-27 -63 -60 -30 -34 -60 -60 -71 -60 -10 0 -19 -4 -19 -9 0 -5 -17 -17 -37
-26 -21 -10 -52 -33 -70 -52 -17 -18 -38 -33 -46 -33 -7 0 -24 -11 -37 -25
-13 -14 -30 -25 -37 -25 -8 0 -27 -14 -43 -31 -15 -17 -33 -28 -39 -25 -6 4
-23 -1 -39 -11 -15 -11 -39 -24 -54 -30 -15 -7 -37 -26 -49 -42 -13 -17 -30
-31 -40 -31 -25 0 -69 -39 -62 -55 3 -8 0 -15 -7 -15 -6 0 -8 5 -5 10 3 5 0
10 -8 10 -17 0 -40 -24 -31 -33 3 -3 -11 -10 -31 -16 -46 -12 -171 -87 -189
-112 -7 -11 -15 -17 -18 -14 -10 10 -73 -42 -70 -58 2 -9 -2 -17 -8 -17 -6 0
-8 5 -5 10 8 13 -1 13 -26 -1 -11 -5 -17 -15 -13 -21 4 -6 -1 -8 -13 -4 -22 7
-77 -29 -68 -44 3 -5 0 -12 -6 -16 -8 -4 -9 -3 -5 4 11 19 -11 14 -64 -13 -27
-14 -57 -25 -67 -25 -10 0 -31 -9 -48 -20 -16 -12 -45 -27 -62 -35 -18 -8 -33
-19 -33 -24 0 -6 -9 -11 -20 -11 -11 0 -23 -7 -26 -15 -4 -8 -15 -15 -25 -15
-22 0 -37 -26 -23 -40 8 -8 127 -10 394 -6 104 1 211 -11 268 -30 23 -8 78
-14 121 -14 81 0 189 -17 206 -31 5 -5 36 -9 70 -10 80 -1 235 -27 270 -46 11
-6 41 -13 66 -15 25 -3 66 -14 90 -25 24 -11 69 -26 99 -33 30 -7 73 -21 95
-31 22 -10 52 -19 67 -19 15 0 33 -6 40 -12 25 -23 57 -38 82 -38 13 0 29 -7
36 -15 7 -9 21 -13 30 -10 10 3 20 0 23 -8 3 -8 27 -17 56 -21 27 -4 53 -11
56 -17 4 -5 12 -9 18 -8 7 1 29 -5 49 -14 44 -20 62 -21 90 -6 17 9 24 8 33
-5 25 -34 40 -17 53 59 9 50 9 1744 1 1842 -4 39 -10 76 -14 82 -10 17 -30 13
-50 -9z"/>
</g>
</svg>
